<mxfile host="app.diagrams.net" modified="2024-05-03T12:04:56.868Z" agent="Mozilla/5.0 (Windows NT 10.0; Win64; x64) AppleWebKit/537.36 (KHTML, like Gecko) Chrome/122.0.0.0 Safari/537.36" etag="0fHY39-Q_xHgm87qVPym" version="24.2.5" type="github">
  <diagram name="第 1 页" id="RLIpUlMl5tuERCqupQb9">
    <mxGraphModel dx="1000" dy="497" grid="1" gridSize="10" guides="1" tooltips="1" connect="1" arrows="1" fold="1" page="1" pageScale="1" pageWidth="827" pageHeight="1169" math="0" shadow="0">
      <root>
        <mxCell id="0" />
        <mxCell id="1" parent="0" />
        <mxCell id="gUjjzV2rQby6Is31GigP-1" value="&lt;font face=&quot;Times New Roman&quot; style=&quot;font-size: 15px;&quot;&gt;&lt;b&gt;第一章 绪论&lt;/b&gt;&lt;/font&gt;" style="rounded=0;whiteSpace=wrap;html=1;" vertex="1" parent="1">
          <mxGeometry x="150" y="190" width="530" height="30" as="geometry" />
        </mxCell>
        <mxCell id="gUjjzV2rQby6Is31GigP-6" value="" style="rounded=0;whiteSpace=wrap;html=1;" vertex="1" parent="1">
          <mxGeometry x="150" y="230" width="330" height="600" as="geometry" />
        </mxCell>
        <mxCell id="gUjjzV2rQby6Is31GigP-3" value="&lt;p class=&quot;MsoNormal&quot;&gt;&lt;font face=&quot;Times New Roman&quot; style=&quot;font-size: 15px;&quot;&gt;&lt;b&gt;第二章 知识库系统的总体设计与架构&lt;/b&gt;&lt;/font&gt;&lt;/p&gt;" style="rounded=0;whiteSpace=wrap;html=1;opacity=0;" vertex="1" parent="1">
          <mxGeometry x="150" y="230" width="330" height="30" as="geometry" />
        </mxCell>
        <mxCell id="gUjjzV2rQby6Is31GigP-4" value="&lt;p align=&quot;center&quot; class=&quot;MsoNormal&quot;&gt;&lt;font face=&quot;Times New Roman&quot; style=&quot;font-size: 15px;&quot;&gt;基于大模型的高校师资知识库的需求分析&lt;/font&gt;&lt;/p&gt;" style="rounded=0;whiteSpace=wrap;html=1;" vertex="1" parent="1">
          <mxGeometry x="160" y="260" width="310" height="30" as="geometry" />
        </mxCell>
        <mxCell id="gUjjzV2rQby6Is31GigP-7" value="" style="rounded=0;whiteSpace=wrap;html=1;" vertex="1" parent="1">
          <mxGeometry x="160" y="300" width="310" height="230" as="geometry" />
        </mxCell>
        <mxCell id="gUjjzV2rQby6Is31GigP-8" value="&lt;p class=&quot;MsoNormal&quot;&gt;&lt;span style=&quot;font-family: &amp;quot;Times New Roman&amp;quot;; font-size: 15px;&quot;&gt;基于大模型的高校师资知识库的系统设计&lt;/span&gt;&lt;br&gt;&lt;/p&gt;" style="rounded=0;whiteSpace=wrap;html=1;opacity=0;" vertex="1" parent="1">
          <mxGeometry x="160" y="300" width="310" height="30" as="geometry" />
        </mxCell>
        <mxCell id="gUjjzV2rQby6Is31GigP-9" value="" style="rounded=0;whiteSpace=wrap;html=1;" vertex="1" parent="1">
          <mxGeometry x="170" y="330" width="120" height="190" as="geometry" />
        </mxCell>
        <mxCell id="gUjjzV2rQby6Is31GigP-10" value="" style="rounded=0;whiteSpace=wrap;html=1;" vertex="1" parent="1">
          <mxGeometry x="310" y="330" width="150" height="190" as="geometry" />
        </mxCell>
        <mxCell id="gUjjzV2rQby6Is31GigP-11" value="&lt;p class=&quot;MsoNormal&quot;&gt;&lt;font face=&quot;Times New Roman&quot;&gt;&lt;span style=&quot;font-size: 15px;&quot;&gt;架构设计&lt;/span&gt;&lt;/font&gt;&lt;br&gt;&lt;/p&gt;" style="rounded=0;whiteSpace=wrap;html=1;opacity=0;" vertex="1" parent="1">
          <mxGeometry x="170" y="330" width="120" height="30" as="geometry" />
        </mxCell>
        <mxCell id="gUjjzV2rQby6Is31GigP-12" value="&lt;font style=&quot;font-size: 15px;&quot; face=&quot;Times New Roman&quot;&gt;数据层&lt;/font&gt;" style="rounded=0;whiteSpace=wrap;html=1;dashed=1;" vertex="1" parent="1">
          <mxGeometry x="180" y="373.75" width="100" height="27.5" as="geometry" />
        </mxCell>
        <mxCell id="gUjjzV2rQby6Is31GigP-13" value="&lt;font face=&quot;Times New Roman&quot;&gt;&lt;span style=&quot;font-size: 15px;&quot;&gt;服务层&lt;/span&gt;&lt;/font&gt;" style="rounded=0;whiteSpace=wrap;html=1;dashed=1;" vertex="1" parent="1">
          <mxGeometry x="180" y="428.75" width="100" height="27.5" as="geometry" />
        </mxCell>
        <mxCell id="gUjjzV2rQby6Is31GigP-14" value="&lt;font face=&quot;Times New Roman&quot;&gt;&lt;span style=&quot;font-size: 15px;&quot;&gt;展现层&lt;/span&gt;&lt;/font&gt;" style="rounded=0;whiteSpace=wrap;html=1;dashed=1;" vertex="1" parent="1">
          <mxGeometry x="180" y="482.5" width="100" height="27.5" as="geometry" />
        </mxCell>
        <mxCell id="gUjjzV2rQby6Is31GigP-15" value="&lt;p class=&quot;MsoNormal&quot;&gt;&lt;font face=&quot;Times New Roman&quot;&gt;&lt;span style=&quot;font-size: 15px;&quot;&gt;功能流程&lt;/span&gt;&lt;/font&gt;&lt;br&gt;&lt;/p&gt;" style="rounded=0;whiteSpace=wrap;html=1;opacity=0;" vertex="1" parent="1">
          <mxGeometry x="310" y="330" width="150" height="30" as="geometry" />
        </mxCell>
        <mxCell id="gUjjzV2rQby6Is31GigP-16" value="&lt;font face=&quot;Times New Roman&quot;&gt;&lt;span style=&quot;font-size: 15px;&quot;&gt;高校师资信息爬取&lt;/span&gt;&lt;/font&gt;" style="rounded=0;whiteSpace=wrap;html=1;dashed=1;" vertex="1" parent="1">
          <mxGeometry x="320" y="360" width="130" height="27.5" as="geometry" />
        </mxCell>
        <mxCell id="gUjjzV2rQby6Is31GigP-17" value="&lt;font face=&quot;Times New Roman&quot;&gt;&lt;span style=&quot;font-size: 15px;&quot;&gt;高校师资知识管理&lt;/span&gt;&lt;/font&gt;" style="rounded=0;whiteSpace=wrap;html=1;dashed=1;" vertex="1" parent="1">
          <mxGeometry x="320" y="401.25" width="130" height="27.5" as="geometry" />
        </mxCell>
        <mxCell id="gUjjzV2rQby6Is31GigP-18" value="&lt;font face=&quot;Times New Roman&quot;&gt;&lt;span style=&quot;font-size: 15px;&quot;&gt;大模型的聚合&lt;/span&gt;&lt;/font&gt;" style="rounded=0;whiteSpace=wrap;html=1;dashed=1;" vertex="1" parent="1">
          <mxGeometry x="320" y="440" width="130" height="27.5" as="geometry" />
        </mxCell>
        <mxCell id="gUjjzV2rQby6Is31GigP-19" value="&lt;font face=&quot;Times New Roman&quot;&gt;&lt;span style=&quot;font-size: 15px;&quot;&gt;高校师资知识问答&lt;/span&gt;&lt;/font&gt;" style="rounded=0;whiteSpace=wrap;html=1;dashed=1;" vertex="1" parent="1">
          <mxGeometry x="320" y="482.5" width="130" height="27.5" as="geometry" />
        </mxCell>
        <mxCell id="gUjjzV2rQby6Is31GigP-20" value="" style="rounded=0;whiteSpace=wrap;html=1;" vertex="1" parent="1">
          <mxGeometry x="160" y="540" width="310" height="230" as="geometry" />
        </mxCell>
        <mxCell id="gUjjzV2rQby6Is31GigP-21" value="&lt;p class=&quot;MsoNormal&quot;&gt;&lt;span style=&quot;font-family: &amp;quot;Times New Roman&amp;quot;; font-size: 15px;&quot;&gt;基于大模型的高校师资知识库系统实现方案&lt;/span&gt;&lt;br&gt;&lt;/p&gt;" style="rounded=0;whiteSpace=wrap;html=1;opacity=0;" vertex="1" parent="1">
          <mxGeometry x="160" y="540" width="310" height="30" as="geometry" />
        </mxCell>
        <mxCell id="gUjjzV2rQby6Is31GigP-23" value="&lt;p align=&quot;center&quot; class=&quot;MsoNormal&quot;&gt;&lt;font face=&quot;Times New Roman&quot; style=&quot;font-size: 15px;&quot;&gt;开发平台&lt;/font&gt;&lt;/p&gt;" style="rounded=0;whiteSpace=wrap;html=1;" vertex="1" parent="1">
          <mxGeometry x="170" y="570" width="290" height="30" as="geometry" />
        </mxCell>
        <mxCell id="gUjjzV2rQby6Is31GigP-24" value="" style="rounded=0;whiteSpace=wrap;html=1;" vertex="1" parent="1">
          <mxGeometry x="170" y="610" width="290" height="130" as="geometry" />
        </mxCell>
        <mxCell id="gUjjzV2rQby6Is31GigP-25" value="&lt;p class=&quot;MsoNormal&quot;&gt;&lt;span style=&quot;font-family: &amp;quot;Times New Roman&amp;quot;; font-size: 15px;&quot;&gt;实现技术&lt;/span&gt;&lt;br&gt;&lt;/p&gt;" style="rounded=0;whiteSpace=wrap;html=1;opacity=0;" vertex="1" parent="1">
          <mxGeometry x="170" y="610" width="310" height="30" as="geometry" />
        </mxCell>
        <mxCell id="gUjjzV2rQby6Is31GigP-22" value="&lt;font face=&quot;Times New Roman&quot;&gt;&lt;span style=&quot;font-size: 15px;&quot;&gt;MongoDB&lt;/span&gt;&lt;/font&gt;" style="rounded=0;whiteSpace=wrap;html=1;dashed=1;" vertex="1" parent="1">
          <mxGeometry x="180" y="641.25" width="70" height="27.5" as="geometry" />
        </mxCell>
        <mxCell id="gUjjzV2rQby6Is31GigP-27" value="&lt;font face=&quot;Times New Roman&quot;&gt;&lt;span style=&quot;font-size: 15px;&quot;&gt;Neo4j&lt;/span&gt;&lt;/font&gt;" style="rounded=0;whiteSpace=wrap;html=1;dashed=1;" vertex="1" parent="1">
          <mxGeometry x="260" y="641.25" width="50" height="27.5" as="geometry" />
        </mxCell>
        <mxCell id="gUjjzV2rQby6Is31GigP-28" value="&lt;font face=&quot;Times New Roman&quot;&gt;&lt;span style=&quot;font-size: 15px;&quot;&gt;Python&lt;/span&gt;&lt;/font&gt;" style="rounded=0;whiteSpace=wrap;html=1;dashed=1;" vertex="1" parent="1">
          <mxGeometry x="320" y="641.25" width="50" height="27.5" as="geometry" />
        </mxCell>
        <mxCell id="gUjjzV2rQby6Is31GigP-29" value="&lt;font face=&quot;Times New Roman&quot;&gt;&lt;span style=&quot;font-size: 15px;&quot;&gt;PyQt&lt;/span&gt;&lt;/font&gt;" style="rounded=0;whiteSpace=wrap;html=1;dashed=1;" vertex="1" parent="1">
          <mxGeometry x="260" y="680" width="50" height="27.5" as="geometry" />
        </mxCell>
      </root>
    </mxGraphModel>
  </diagram>
</mxfile>
